<svg width="1024" height="1118" viewBox="0 0 1024 1118" fill="none" xmlns="http://www.w3.org/2000/svg">
<path opacity="0.5" d="M318.921 43.6942C198.983 144.217 180.396 334.298 99.1666 474.527C70.8898 523.322 34.3523 566.992 15.2893 621.123C-28.4762 745.026 31.7576 885.572 112.378 983.981C150.822 1030.93 195.726 1073.94 250.056 1093.72C291.835 1108.94 336.634 1109.57 380.611 1109.97L1151.07 1117.9C1237.1 1118.77 1332.68 1115.62 1394.53 1049.21C1437.15 1003.48 1454.47 936.692 1469.16 872.944C1487.22 794.613 1503.58 709.546 1475.49 634.94C1443.4 549.582 1362.25 501.21 1311.84 427.555C1230.03 308.223 1231.91 127.731 1127.72 32.4664C1079.09 -11.9959 1014.91 -29.4321 952.369 -38.1502C834.469 -54.6089 722.792 -23.5408 607.011 -27.8734C508.042 -31.572 401.024 -25.1259 318.921 43.6942Z" fill="#E7ECFF"/>
<path opacity="0.24" d="M560.363 939.613C513.915 944.283 466.04 949.419 425.167 972.264C419.696 975.328 414.141 978.942 411.123 984.458C405.065 995.553 411.941 1010.18 422.61 1016.86C433.279 1023.53 446.442 1024.29 458.997 1024.84C682.564 1034.59 906.467 1030.76 1130.22 1026.96C1195.2 1025.86 1261.21 1024.59 1323.48 1005.72C1334.67 1002.34 1346.98 997.265 1351.19 986.212C1356.7 971.757 1344.13 955.737 1329.45 951.236C1314.78 946.735 1299.12 950.095 1283.95 952.06C1231.25 958.886 1178.1 948.446 1125.63 940.099C1022.92 923.784 916.36 910.512 812.332 908.039C776.867 907.215 746.578 919.515 711.868 924.376C661.75 931.434 610.753 934.541 560.363 939.613Z" fill="#505F98"/>
<path d="M377.654 506.326L493.484 270.408L562.47 304.19L446.641 540.108L377.654 506.326Z" fill="white"/>
<path d="M404.5 499.055L418.613 470.22L465.077 492.903L450.964 521.738L404.5 499.055Z" fill="#505F98"/>
<path d="M404.5 499.055L418.613 470.22L465.077 492.903L450.964 521.738L404.5 499.055Z" fill="url(#paint0_linear_917_1803)"/>
<path d="M418.615 470.445L432.729 441.61L479.193 464.293L465.079 493.128L418.615 470.445Z" fill="#505F98"/>
<path d="M418.615 470.445L432.729 441.61L479.193 464.293L465.079 493.128L418.615 470.445Z" fill="url(#paint1_linear_917_1803)"/>
<path d="M432.712 441.826L446.825 412.991L493.289 435.674L479.176 464.509L432.712 441.826Z" fill="#505F98"/>
<path d="M432.712 441.826L446.825 412.991L493.289 435.674L479.176 464.509L432.712 441.826Z" fill="url(#paint2_linear_917_1803)"/>
<path d="M446.848 413.237L460.962 384.402L507.426 407.085L493.312 435.92L446.848 413.237Z" fill="#505F98"/>
<path d="M446.848 413.237L460.962 384.402L507.426 407.085L493.312 435.92L446.848 413.237Z" fill="url(#paint3_linear_917_1803)"/>
<path d="M460.954 384.599L475.068 355.764L521.532 378.447L507.418 407.282L460.954 384.599Z" fill="#505F98"/>
<path d="M475.07 356.01L489.183 327.175L535.647 349.858L521.534 378.693L475.07 356.01Z" fill="#505F98"/>
<path d="M489.166 327.391L503.28 298.556L549.744 321.239L535.63 350.074L489.166 327.391Z" fill="#505F98"/>
<path d="M473.482 359.598L487.595 330.763L534.059 353.446L519.946 382.281L473.482 359.598Z" fill="url(#paint4_linear_917_1803)"/>
<path d="M487.606 330.97L501.72 302.135L548.184 324.817L534.07 353.652L487.606 330.97Z" fill="url(#paint5_linear_917_1803)"/>
<rect x="788.123" y="824" width="98.0679" height="82" fill="#505F98"/>
<rect x="788.123" y="824" width="98.0679" height="82" fill="url(#paint6_linear_917_1803)"/>
<rect x="579.979" y="482" width="518.359" height="355" rx="9.37" fill="#505F98"/>
<path opacity="0.65" d="M1081.33 511.438V805.562C1081.34 810.443 1079.42 815.129 1075.98 818.588C1072.54 822.047 1067.86 823.994 1062.99 824H611.325C606.451 823.989 601.78 822.04 598.341 818.582C594.902 815.125 592.977 810.441 592.988 805.562V511.438C592.977 506.559 594.902 501.875 598.341 498.418C601.78 494.96 606.451 493.011 611.325 493H1062.99C1067.86 493.006 1072.54 494.953 1075.98 498.412C1079.42 501.871 1081.34 506.557 1081.33 511.438V511.438Z" fill="url(#paint7_linear_917_1803)"/>
<rect x="743.092" y="896" width="206.143" height="21" fill="#505F98"/>
<rect x="788.123" y="884" width="98.0679" height="12" fill="url(#paint8_linear_917_1803)"/>
<path fill-rule="evenodd" clip-rule="evenodd" d="M943.23 310.241V330.715L930.521 330.819C929.285 340.346 925.661 349.41 919.983 357.181L930.837 368.351L915.957 382.6L905.271 371.578C898.683 376.062 891.247 379.17 883.415 380.714V394H862.845V381.029C854.06 379.76 845.687 376.497 838.375 371.494L829.438 380.316L814.875 365.647L823.748 356.993C818.161 349.219 814.599 340.191 813.378 330.715H799.13V310.241H813.884C815.713 302.093 819.309 294.441 824.422 287.819L816.181 279.332L831.061 265.082L839.492 273.82C846.462 269.214 854.386 266.228 862.676 265.082V251H883.247V265.396C891.615 267.055 899.524 270.493 906.431 275.476L916.969 265.166L931.448 279.709L920.91 290.187C925.042 296.267 927.974 303.073 929.552 310.241H943.23ZM837.089 323.15C837.066 342.211 852.589 357.682 871.76 357.705C880.972 357.733 889.815 354.113 896.337 347.644C902.858 341.176 906.521 332.392 906.515 323.233C906.538 304.172 891.016 288.701 871.844 288.678C852.673 288.655 837.112 304.088 837.089 323.15Z" fill="#505F98"/>
<path fill-rule="evenodd" clip-rule="evenodd" d="M1019.28 344.354L1018.36 356.396L1010.85 355.938C1009.73 361.475 1007.22 366.641 1003.57 370.958L1009.43 378.021L1000.08 385.729L994.324 378.792C990.27 381.13 985.784 382.625 981.136 383.188L980.531 391L968.49 390.104L969.074 382.479C963.988 381.344 959.233 379.056 955.176 375.792L949.541 380.583L941.674 371.396L947.246 366.688C944.317 361.876 942.632 356.414 942.342 350.792L934.224 350.167L935.121 338.146L943.74 338.792C945.163 334.085 947.591 329.743 950.856 326.062L946.411 320.708L955.76 313L960.288 318.5C964.56 316.095 969.315 314.672 974.207 314.333L974.834 306L986.874 306.896L986.228 315.375C991.035 316.714 995.492 319.081 999.291 322.312L1005.91 316.708L1013.75 325.896L1007.07 331.583C1009.24 335.339 1010.66 339.477 1011.25 343.771L1019.28 344.354ZM956.586 347.243C955.731 358.436 964.123 368.203 975.334 369.062C980.729 369.487 986.07 367.747 990.175 364.228C994.28 360.708 996.81 355.7 997.204 350.312C998.047 339.119 989.644 329.361 978.431 328.514C967.219 327.666 957.441 336.05 956.586 347.243Z" fill="#505F98"/>
<path d="M1081.33 511.513V518H592.988V511.513C592.977 506.614 594.902 501.912 598.342 498.44C601.781 494.968 606.452 493.011 611.327 493H1062.99C1067.86 493.006 1072.54 494.961 1075.98 498.434C1079.42 501.907 1081.34 506.613 1081.33 511.513V511.513Z" fill="url(#paint9_linear_917_1803)"/>
<rect x="602.995" y="550" width="47.0326" height="227" fill="url(#paint10_linear_917_1803)"/>
<rect x="721.076" y="566" width="221.153" height="209" fill="url(#paint11_linear_917_1803)"/>
<rect x="772.112" y="664" width="7.00485" height="9" fill="url(#paint12_linear_917_1803)"/>
<rect x="772.112" y="622" width="7.00485" height="9" fill="url(#paint13_linear_917_1803)"/>
<rect x="677.046" y="664" width="7.00485" height="9" fill="url(#paint14_linear_917_1803)"/>
<rect x="677.046" y="622" width="7.00485" height="9" fill="url(#paint15_linear_917_1803)"/>
<rect x="772.112" y="577" width="7.00485" height="9" fill="url(#paint16_linear_917_1803)"/>
<rect x="678.047" y="577" width="7.00485" height="9" fill="url(#paint17_linear_917_1803)"/>
<rect x="726.08" y="577" width="7.00485" height="9" fill="url(#paint18_linear_917_1803)"/>
<rect x="726.08" y="664" width="7.00485" height="9" fill="url(#paint19_linear_917_1803)"/>
<path fill-rule="evenodd" clip-rule="evenodd" d="M690.055 662H768.109V589H690.055V662ZM760.247 654.282H697.917V596.656H760.247V654.282Z" fill="#505F98"/>
<path fill-rule="evenodd" clip-rule="evenodd" d="M690.055 662H768.109V589H690.055V662ZM760.247 654.282H697.917V596.656H760.247V654.282Z" fill="url(#paint20_linear_917_1803)"/>
<rect x="974.252" y="530" width="100.069" height="100" fill="url(#paint21_linear_917_1803)"/>
<rect x="974.252" y="640" width="100.069" height="100" fill="url(#paint22_linear_917_1803)"/>
<rect opacity="0.65" x="602.995" y="549" width="47.0326" height="13" fill="url(#paint23_linear_917_1803)"/>
<path d="M399.958 480.827L605.087 316.293L653.199 376.118L448.071 540.652L399.958 480.827Z" fill="white"/>
<path d="M428.682 485.455L453.75 465.235L486.332 505.522L461.265 525.742L428.682 485.455Z" fill="#505F98"/>
<path d="M428.682 485.455L453.75 465.235L486.332 505.522L461.265 525.742L428.682 485.455Z" fill="url(#paint24_linear_917_1803)"/>
<path d="M452.3 465.689L477.332 445.56L509.767 485.79L484.735 505.919L452.3 465.689Z" fill="#505F98"/>
<path d="M452.3 465.689L477.332 445.56L509.767 485.79L484.735 505.919L452.3 465.689Z" fill="url(#paint25_linear_917_1803)"/>
<path d="M477.244 445.761L502.276 425.633L534.711 465.863L509.679 485.991L477.244 445.761Z" fill="#505F98"/>
<path d="M477.244 445.761L502.276 425.633L534.711 465.863L509.679 485.991L477.244 445.761Z" fill="url(#paint26_linear_917_1803)"/>
<path d="M502.172 425.847L527.204 405.718L559.639 445.948L534.606 466.077L502.172 425.847Z" fill="#505F98"/>
<path d="M502.172 425.847L527.204 405.718L559.639 445.948L534.606 466.077L502.172 425.847Z" fill="url(#paint27_linear_917_1803)"/>
<path d="M528.292 405.389L553.359 385.169L585.942 425.456L560.874 445.676L528.292 405.389Z" fill="#505F98"/>
<path d="M553.372 384.99L578.439 364.77L611.022 405.057L585.954 425.277L553.372 384.99Z" fill="#505F98"/>
<path d="M576.979 366.051L602.011 345.923L634.446 386.153L609.414 406.282L576.979 366.051Z" fill="#505F98"/>
<path d="M606.997 409.218L585.898 426L553.961 385.782L575.06 369L606.997 409.218V409.218Z" fill="url(#paint28_linear_917_1803)"/>
<path d="M574.022 368.648L599.054 348.519L631.489 388.749L606.457 408.878L574.022 368.648Z" fill="url(#paint29_linear_917_1803)"/>
<path d="M522.939 490.15V613H501.925V490.15C501.925 485.61 504.743 481.57 508.943 480.089V467.825C508.943 465.712 510.619 464 512.686 464C514.753 464 516.429 465.712 516.429 467.825V480.297C520.349 481.935 522.917 485.823 522.939 490.15V490.15Z" fill="#505F98"/>
<path d="M522.939 490.15V613H501.925V490.15C501.925 485.61 504.743 481.57 508.943 480.089V467.825C508.943 465.712 510.619 464 512.686 464C514.753 464 516.429 465.712 516.429 467.825V480.297C520.349 481.935 522.917 485.823 522.939 490.15V490.15Z" fill="url(#paint30_linear_917_1803)"/>
<rect x="488.916" y="568" width="50.0346" height="9" rx="2.245" fill="#505F98"/>
<path d="M513.621 650V650C505.048 650 497.922 637.185 497.922 628.634V572H528.943V628.634C528.943 637.185 522.173 650 513.621 650Z" fill="#505F98"/>
<rect x="488.916" y="568" width="50.0346" height="9" rx="2.245" fill="url(#paint31_linear_917_1803)"/>
<path d="M513.621 650V650C505.048 650 497.922 637.366 497.922 628.937V577H528.943V628.937C528.943 637.366 522.173 650 513.621 650Z" fill="url(#paint32_linear_917_1803)"/>
<path d="M713.713 710C713.04 706.436 712.615 701.39 713.908 701.043C716.636 700.275 713.713 710 713.713 710Z" fill="#28353D"/>
<path d="M856.972 905.507C856.486 918.102 846.724 964.388 846.407 977.004C846.407 981.202 847.527 987.647 846.175 991.698C843.385 1000.28 833.496 999.108 832.207 994.049L831.721 991.53C827.136 967.012 834.511 939.198 831.721 907.186C830.052 887.643 822.276 849.963 817.183 849.711C814.5 849.711 753.242 978.851 747.917 986.807C745.297 990.817 737.922 990.187 734.351 993.42C730.78 996.652 764.103 895.515 778.071 842.07C781.328 831.039 783.452 819.709 784.41 808.252C784.79 801.64 782.656 799.415 788.763 797.463C792.989 796.119 798.842 796.497 803.364 796.182C808.287 795.804 854.078 795.72 854.078 798.953C853.634 816.502 858.156 876.412 856.972 905.507Z" fill="#606161"/>
<path d="M856.972 905.507C856.486 918.102 846.724 964.388 846.407 977.004C846.407 981.202 847.527 987.647 846.175 991.698C843.385 1000.28 833.496 999.108 832.207 994.049L831.721 991.53C827.136 967.012 834.511 939.198 831.721 907.186C830.052 887.643 822.276 849.963 817.183 849.711C814.5 849.711 753.242 978.851 747.917 986.807C745.297 990.817 737.922 990.187 734.351 993.42C730.78 996.652 764.103 895.515 778.071 842.07C781.328 831.039 783.452 819.709 784.41 808.252C784.79 801.64 782.656 799.415 788.763 797.463C792.989 796.119 798.842 796.497 803.364 796.182C808.287 795.804 854.078 795.72 854.078 798.953C853.634 816.502 858.156 876.412 856.972 905.507Z" fill="url(#paint33_linear_917_1803)"/>
<path d="M802.899 637.148C802.514 633.163 800.632 631 798.792 631C796.952 631 795.818 633.12 796.203 637.148C796.291 640.122 798.535 642.597 801.509 643C803.37 643 803.306 641.134 802.899 637.148Z" fill="#FFCD9C"/>
<path d="M835.293 637.159C835.544 633.166 837.38 631 839.279 631C841.178 631 842.41 633.124 842.117 637.159C842.091 640.173 839.846 642.687 836.9 643C835.022 643 835.001 641.152 835.293 637.159Z" fill="#FFCD9C"/>
<path d="M839.018 654.672C838.759 656.777 829.844 666 819.698 666C809.553 666 801.178 657.577 799.408 654.208C797.638 650.839 804.761 607.505 808.884 603.884C813.007 600.262 829.714 602.641 831.117 604.558C834.485 609.085 840.119 646.27 839.018 654.672Z" fill="#F4AD7D"/>
<path d="M834.824 621.977C833.445 622.639 828.029 608.842 826.893 606.525C825.757 604.208 825.94 601.829 827.319 601.167C828.698 600.505 830.727 601.871 831.862 604.167C832.998 606.463 836.183 621.336 834.824 621.977Z" fill="#FFCD9C"/>
<path d="M804.453 620.987C803.023 620.501 806.811 606.179 807.637 603.703C808.463 601.228 810.316 599.599 811.666 600.086C813.016 600.573 813.58 602.984 812.754 605.481C811.928 607.977 805.803 621.474 804.453 620.987Z" fill="#FFCD9C"/>
<path d="M810.131 653H831.894L835.155 673.622C823.299 680.005 816.387 679.301 807.136 672.214L810.131 653Z" fill="#F4AD7D"/>
<path d="M819.144 657.13C819.144 656.75 820.05 656.43 821.146 656.43C822.242 656.43 823.147 656.75 823.147 657.13C823.147 657.51 822.265 657.57 821.146 657.57C820.026 657.57 819.144 657.53 819.144 657.13Z" fill="#F4AD7D"/>
<path d="M840.177 647.808C841.001 642.894 842.345 607.708 839.05 603.051C835.755 598.394 816.027 595.381 813.035 596.108C806.336 597.731 807.507 602.517 807.507 602.517C805.515 602.547 803.566 603.084 801.848 604.076C799.55 605.615 794.716 627.79 798.575 644.56C800.309 652.102 807.138 658.66 818.932 658.981C833.457 659.365 839.18 653.896 840.177 647.808Z" fill="#606161"/>
<path d="M813.116 597.762C814.676 596.448 816.695 595.828 818.716 596.041C824.848 596.008 830.932 597.14 836.65 599.376C839.821 600.488 842.7 602.311 845.07 604.708C847.457 607.173 848.557 610.627 848.038 614.034C846.986 619.047 841.723 622.148 839.997 626.97C838.608 630.837 839.597 634.575 839.639 638.463C839.667 641.606 839.442 644.746 838.966 647.852C837.997 653.906 832.461 659.344 818.253 658.983C806.801 658.664 800.171 652.143 798.487 644.644C796.207 632.198 796.805 619.389 800.234 607.215C806.405 608.648 812.72 609.361 819.052 609.339C825.767 609.395 832.463 608.611 838.987 607.002C840.102 613.503 840.081 626.524 839.724 636.253" fill="#606161"/>
<path d="M777.988 669.954C774.554 670.241 771.245 671.384 768.362 673.28C763.425 677.171 763.05 684.43 763.133 690.748C762.964 699.501 763.571 708.252 764.946 716.897C766.425 724.826 769.112 732.441 771.321 740.202C774.802 752.831 776.63 765.862 776.759 778.966C776.759 786.162 776.634 794.07 781.113 799.697C786.009 805.806 794.676 806.998 802.468 807.438C813.53 808.086 824.635 808.17 835.698 807.709C843.114 807.375 851.01 806.643 856.886 802.082C861.573 798.442 872.553 675.288 864.032 672.171C855.511 669.054 846.344 668.259 837.302 667.506C817.03 665.791 797.947 664.431 777.988 669.954Z" fill="#505F98"/>
<path d="M841.807 925.291C840.72 939.255 838.128 990 838.128 990L831.523 989.77C826.988 965.39 834.282 937.732 831.523 905.899C829.872 886.465 822.18 848.996 817.143 848.746C818.648 836.221 827.113 838.1 827.113 838.1C833.27 847.294 838.58 857.026 842.978 867.178C848.015 880.37 842.915 911.263 841.807 925.291Z" fill="url(#paint34_linear_917_1803)"/>
<path d="M717.45 991.024C716.419 991.786 715.636 992.83 715.198 994.025C714.963 995.009 715.059 996.04 715.469 996.965C716.636 999.326 718.846 1001.02 721.454 1001.55C724.03 1002.04 726.668 1002.13 729.273 1001.82L737.614 1001.26C739.736 1001.21 741.841 1000.87 743.869 1000.26C745.899 999.627 747.575 998.198 748.498 996.308C748.989 994.916 749.181 993.438 749.061 991.969C749.061 985.164 746.642 979.634 739.094 981.299C731.187 982.765 723.76 986.102 717.45 991.024V991.024Z" fill="#505F98"/>
<path d="M855.988 994.063C856.936 994.759 857.654 995.709 858.055 996.797C858.269 997.682 858.186 998.611 857.816 999.446C856.753 1001.58 854.724 1003.11 852.333 1003.58C849.975 1004.04 847.559 1004.12 845.174 1003.83L837.601 1003.33C835.675 1003.28 833.764 1002.98 831.922 1002.43C830.065 1001.86 828.536 1000.57 827.701 998.853C827.253 997.595 827.075 996.26 827.178 994.932C827.178 988.785 829.354 983.72 836.296 985.288C843.492 986.619 850.249 989.63 855.988 994.063V994.063Z" fill="#505F98"/>
<path d="M865.176 672C865.176 672 897.892 691.164 907.717 715.389C917.543 739.614 875.538 798 875.538 798L866.549 788.814C866.549 788.814 888.474 744.759 885.084 733.74C881.695 722.721 868.416 712.452 868.416 712.452L865.176 672Z" fill="#505F98"/>
<path d="M772.112 709.859C772.112 709.859 726.623 730.24 708.138 720.238C689.653 710.237 708.684 660 708.684 660L721.063 664.202C721.063 664.202 710.719 689.815 722.553 693.618C734.386 697.421 769.846 672.438 769.846 672.438L772.112 709.859Z" fill="#505F98"/>
<path d="M857.752 796.976C856.443 797.826 855.383 798.968 854.667 800.297C854.237 801.425 854.082 802.629 854.214 803.819C854.135 806.709 855.449 809.479 857.795 811.367C859.444 812.25 861.291 812.76 863.188 812.857C864.352 813.048 865.542 813.048 866.705 812.857C867.891 812.646 868.882 811.888 869.337 810.844C869.492 810.183 869.557 809.507 869.531 808.831C869.682 805.51 872.184 802.793 874.255 800.076C874.756 799.551 875.078 798.9 875.183 798.204C875.171 797.434 874.882 796.69 874.363 796.091C872.961 794.199 869.488 790.717 866.705 791.018C863.922 791.32 859.909 795.326 857.752 796.976Z" fill="#F4AD7D"/>
<path d="M728.871 652.435C729.464 651.611 729.868 650.679 730.057 649.698C730.208 648.683 729.672 647.687 728.717 647.211C727.201 646.647 725.399 648.13 723.905 647.504C723.4 647.235 722.976 646.846 722.675 646.375C720.911 643.945 719.898 641.093 719.753 638.143C719.839 636.571 719.691 634.995 719.313 633.463C718.869 631.886 717.286 630.849 715.578 631.018C714.172 631.331 713.381 632.689 712.502 633.776C711.623 634.863 709.866 636.158 708.723 637.516C706.772 640.307 705.656 643.55 705.493 646.898C704.878 651.077 704.483 655.861 707.559 658.87C709.931 661.189 717.16 663.927 720.478 662.694C724.147 661.315 727.025 655.444 728.871 652.435Z" fill="#F4AD7D"/>
<defs>
<linearGradient id="paint0_linear_917_1803" x1="528.688" y1="566.166" x2="593.442" y2="437.6" gradientUnits="userSpaceOnUse">
<stop stop-color="#010101" stop-opacity="0.01"/>
<stop offset="0.95" stop-color="#010101"/>
</linearGradient>
<linearGradient id="paint1_linear_917_1803" x1="583.849" y1="562.365" x2="676.703" y2="380.775" gradientUnits="userSpaceOnUse">
<stop stop-color="#010101" stop-opacity="0.01"/>
<stop offset="0.95" stop-color="#010101"/>
</linearGradient>
<linearGradient id="paint2_linear_917_1803" x1="703.831" y1="571.092" x2="841.184" y2="260.948" gradientUnits="userSpaceOnUse">
<stop stop-color="#010101" stop-opacity="0.01"/>
<stop offset="0.95" stop-color="#010101"/>
</linearGradient>
<linearGradient id="paint3_linear_917_1803" x1="831.665" y1="587.583" x2="1036.59" y2="140.178" gradientUnits="userSpaceOnUse">
<stop stop-color="#010101" stop-opacity="0.01"/>
<stop offset="0.36" stop-color="#010101" stop-opacity="0.36"/>
<stop offset="0.95" stop-color="#010101"/>
</linearGradient>
<linearGradient id="paint4_linear_917_1803" x1="683.012" y1="482.564" x2="800.171" y2="240.969" gradientUnits="userSpaceOnUse">
<stop stop-color="white" stop-opacity="0.01"/>
<stop offset="0.07" stop-color="white" stop-opacity="0.22"/>
<stop offset="0.16" stop-color="white" stop-opacity="0.45"/>
<stop offset="0.25" stop-color="white" stop-opacity="0.65"/>
<stop offset="0.33" stop-color="white" stop-opacity="0.8"/>
<stop offset="0.4" stop-color="white" stop-opacity="0.91"/>
<stop offset="0.46" stop-color="white" stop-opacity="0.98"/>
<stop offset="0.51" stop-color="white"/>
</linearGradient>
<linearGradient id="paint5_linear_917_1803" x1="604.936" y1="429.444" x2="669.132" y2="293.555" gradientUnits="userSpaceOnUse">
<stop stop-color="white" stop-opacity="0.01"/>
<stop offset="0.07" stop-color="white" stop-opacity="0.22"/>
<stop offset="0.16" stop-color="white" stop-opacity="0.45"/>
<stop offset="0.25" stop-color="white" stop-opacity="0.65"/>
<stop offset="0.33" stop-color="white" stop-opacity="0.8"/>
<stop offset="0.4" stop-color="white" stop-opacity="0.91"/>
<stop offset="0.46" stop-color="white" stop-opacity="0.98"/>
<stop offset="0.51" stop-color="white"/>
</linearGradient>
<linearGradient id="paint6_linear_917_1803" x1="910.258" y1="892.322" x2="920.679" y2="765.584" gradientUnits="userSpaceOnUse">
<stop stop-color="#010101" stop-opacity="0.01"/>
<stop offset="0.95" stop-color="#010101"/>
</linearGradient>
<linearGradient id="paint7_linear_917_1803" x1="508.545" y1="429.517" x2="505.829" y2="879.071" gradientUnits="userSpaceOnUse">
<stop stop-color="white" stop-opacity="0.01"/>
<stop offset="0.07" stop-color="white" stop-opacity="0.22"/>
<stop offset="0.16" stop-color="white" stop-opacity="0.45"/>
<stop offset="0.25" stop-color="white" stop-opacity="0.65"/>
<stop offset="0.33" stop-color="white" stop-opacity="0.8"/>
<stop offset="0.4" stop-color="white" stop-opacity="0.91"/>
<stop offset="0.46" stop-color="white" stop-opacity="0.98"/>
<stop offset="0.51" stop-color="white"/>
</linearGradient>
<linearGradient id="paint8_linear_917_1803" x1="254.891" y1="867.073" x2="254.991" y2="1009.31" gradientUnits="userSpaceOnUse">
<stop stop-color="#010101" stop-opacity="0.01"/>
<stop offset="0.95" stop-color="#010101"/>
</linearGradient>
<linearGradient id="paint9_linear_917_1803" x1="1407.3" y1="612.966" x2="1441.49" y2="205.855" gradientUnits="userSpaceOnUse">
<stop stop-color="white" stop-opacity="0.01"/>
<stop offset="0.07" stop-color="white" stop-opacity="0.22"/>
<stop offset="0.16" stop-color="white" stop-opacity="0.45"/>
<stop offset="0.25" stop-color="white" stop-opacity="0.65"/>
<stop offset="0.33" stop-color="white" stop-opacity="0.8"/>
<stop offset="0.4" stop-color="white" stop-opacity="0.91"/>
<stop offset="0.46" stop-color="white" stop-opacity="0.98"/>
<stop offset="0.51" stop-color="white"/>
</linearGradient>
<linearGradient id="paint10_linear_917_1803" x1="580.424" y1="502.87" x2="718.43" y2="871.142" gradientUnits="userSpaceOnUse">
<stop stop-color="white" stop-opacity="0.01"/>
<stop offset="0.07" stop-color="white" stop-opacity="0.22"/>
<stop offset="0.16" stop-color="white" stop-opacity="0.45"/>
<stop offset="0.25" stop-color="white" stop-opacity="0.65"/>
<stop offset="0.33" stop-color="white" stop-opacity="0.8"/>
<stop offset="0.4" stop-color="white" stop-opacity="0.91"/>
<stop offset="0.46" stop-color="white" stop-opacity="0.98"/>
<stop offset="0.51" stop-color="white"/>
</linearGradient>
<linearGradient id="paint11_linear_917_1803" x1="683.954" y1="525.99" x2="680.629" y2="808.698" gradientUnits="userSpaceOnUse">
<stop stop-color="white" stop-opacity="0.01"/>
<stop offset="0.07" stop-color="white" stop-opacity="0.22"/>
<stop offset="0.16" stop-color="white" stop-opacity="0.45"/>
<stop offset="0.25" stop-color="white" stop-opacity="0.65"/>
<stop offset="0.33" stop-color="white" stop-opacity="0.8"/>
<stop offset="0.4" stop-color="white" stop-opacity="0.91"/>
<stop offset="0.46" stop-color="white" stop-opacity="0.98"/>
<stop offset="0.51" stop-color="white"/>
</linearGradient>
<linearGradient id="paint12_linear_917_1803" x1="999.788" y1="717.704" x2="1018.98" y2="139.785" gradientUnits="userSpaceOnUse">
<stop stop-color="#010101" stop-opacity="0.01"/>
<stop offset="0.95" stop-color="#010101"/>
</linearGradient>
<linearGradient id="paint13_linear_917_1803" x1="998.937" y1="718.045" x2="1018.12" y2="140.125" gradientUnits="userSpaceOnUse">
<stop stop-color="#010101" stop-opacity="0.01"/>
<stop offset="0.95" stop-color="#010101"/>
</linearGradient>
<linearGradient id="paint14_linear_917_1803" x1="904.757" y1="715.354" x2="923.973" y2="137.435" gradientUnits="userSpaceOnUse">
<stop stop-color="#010101" stop-opacity="0.01"/>
<stop offset="0.95" stop-color="#010101"/>
</linearGradient>
<linearGradient id="paint15_linear_917_1803" x1="903.906" y1="715.694" x2="923.122" y2="137.776" gradientUnits="userSpaceOnUse">
<stop stop-color="#010101" stop-opacity="0.01"/>
<stop offset="0.95" stop-color="#010101"/>
</linearGradient>
<linearGradient id="paint16_linear_917_1803" x1="997.998" y1="719.545" x2="1017.21" y2="141.627" gradientUnits="userSpaceOnUse">
<stop stop-color="#010101" stop-opacity="0.01"/>
<stop offset="0.95" stop-color="#010101"/>
</linearGradient>
<linearGradient id="paint17_linear_917_1803" x1="903.968" y1="717.236" x2="923.155" y2="139.317" gradientUnits="userSpaceOnUse">
<stop stop-color="#010101" stop-opacity="0.01"/>
<stop offset="0.95" stop-color="#010101"/>
</linearGradient>
<linearGradient id="paint18_linear_917_1803" x1="951.958" y1="718.396" x2="971.174" y2="140.499" gradientUnits="userSpaceOnUse">
<stop stop-color="#010101" stop-opacity="0.01"/>
<stop offset="0.95" stop-color="#010101"/>
</linearGradient>
<linearGradient id="paint19_linear_917_1803" x1="953.774" y1="715.843" x2="972.99" y2="137.925" gradientUnits="userSpaceOnUse">
<stop stop-color="#010101" stop-opacity="0.01"/>
<stop offset="0.95" stop-color="#010101"/>
</linearGradient>
<linearGradient id="paint20_linear_917_1803" x1="608.696" y1="730.399" x2="840.928" y2="947.094" gradientUnits="userSpaceOnUse">
<stop stop-color="white" stop-opacity="0.01"/>
<stop offset="0.07" stop-color="white" stop-opacity="0.22"/>
<stop offset="0.16" stop-color="white" stop-opacity="0.45"/>
<stop offset="0.25" stop-color="white" stop-opacity="0.65"/>
<stop offset="0.33" stop-color="white" stop-opacity="0.8"/>
<stop offset="0.4" stop-color="white" stop-opacity="0.91"/>
<stop offset="0.46" stop-color="white" stop-opacity="0.98"/>
<stop offset="0.51" stop-color="white"/>
</linearGradient>
<linearGradient id="paint21_linear_917_1803" x1="957.563" y1="510.864" x2="955.778" y2="646.026" gradientUnits="userSpaceOnUse">
<stop stop-color="white" stop-opacity="0.01"/>
<stop offset="0.07" stop-color="white" stop-opacity="0.22"/>
<stop offset="0.16" stop-color="white" stop-opacity="0.45"/>
<stop offset="0.25" stop-color="white" stop-opacity="0.65"/>
<stop offset="0.33" stop-color="white" stop-opacity="0.8"/>
<stop offset="0.4" stop-color="white" stop-opacity="0.91"/>
<stop offset="0.46" stop-color="white" stop-opacity="0.98"/>
<stop offset="0.51" stop-color="white"/>
</linearGradient>
<linearGradient id="paint22_linear_917_1803" x1="957.563" y1="620.864" x2="955.778" y2="756.026" gradientUnits="userSpaceOnUse">
<stop stop-color="white" stop-opacity="0.01"/>
<stop offset="0.07" stop-color="white" stop-opacity="0.22"/>
<stop offset="0.16" stop-color="white" stop-opacity="0.45"/>
<stop offset="0.25" stop-color="white" stop-opacity="0.65"/>
<stop offset="0.33" stop-color="white" stop-opacity="0.8"/>
<stop offset="0.4" stop-color="white" stop-opacity="0.91"/>
<stop offset="0.46" stop-color="white" stop-opacity="0.98"/>
<stop offset="0.51" stop-color="white"/>
</linearGradient>
<linearGradient id="paint23_linear_917_1803" x1="593.723" y1="546.281" x2="593.705" y2="564.481" gradientUnits="userSpaceOnUse">
<stop stop-color="white" stop-opacity="0.01"/>
<stop offset="0.07" stop-color="white" stop-opacity="0.22"/>
<stop offset="0.16" stop-color="white" stop-opacity="0.45"/>
<stop offset="0.25" stop-color="white" stop-opacity="0.65"/>
<stop offset="0.33" stop-color="white" stop-opacity="0.8"/>
<stop offset="0.4" stop-color="white" stop-opacity="0.91"/>
<stop offset="0.46" stop-color="white" stop-opacity="0.98"/>
<stop offset="0.51" stop-color="white"/>
</linearGradient>
<linearGradient id="paint24_linear_917_1803" x1="513.022" y1="599.052" x2="626.453" y2="509.635" gradientUnits="userSpaceOnUse">
<stop stop-color="#010101" stop-opacity="0.01"/>
<stop offset="0.95" stop-color="#010101"/>
</linearGradient>
<linearGradient id="paint25_linear_917_1803" x1="562.861" y1="618.988" x2="724.138" y2="493.867" gradientUnits="userSpaceOnUse">
<stop stop-color="#010101" stop-opacity="0.01"/>
<stop offset="0.95" stop-color="#010101"/>
</linearGradient>
<linearGradient id="paint26_linear_917_1803" x1="667.805" y1="677.751" x2="923.97" y2="455.028" gradientUnits="userSpaceOnUse">
<stop stop-color="#010101" stop-opacity="0.01"/>
<stop offset="0.95" stop-color="#010101"/>
</linearGradient>
<linearGradient id="paint27_linear_917_1803" x1="776.565" y1="746.865" x2="1152.25" y2="428.45" gradientUnits="userSpaceOnUse">
<stop stop-color="#010101" stop-opacity="0.01"/>
<stop offset="0.36" stop-color="#010101" stop-opacity="0.36"/>
<stop offset="0.95" stop-color="#010101"/>
</linearGradient>
<linearGradient id="paint28_linear_917_1803" x1="624.823" y1="509.751" x2="807.763" y2="378.322" gradientUnits="userSpaceOnUse">
<stop stop-color="white" stop-opacity="0.01"/>
<stop offset="0.07" stop-color="white" stop-opacity="0.22"/>
<stop offset="0.16" stop-color="white" stop-opacity="0.45"/>
<stop offset="0.25" stop-color="white" stop-opacity="0.65"/>
<stop offset="0.33" stop-color="white" stop-opacity="0.8"/>
<stop offset="0.4" stop-color="white" stop-opacity="0.91"/>
<stop offset="0.46" stop-color="white" stop-opacity="0.98"/>
<stop offset="0.51" stop-color="white"/>
</linearGradient>
<linearGradient id="paint29_linear_917_1803" x1="638.437" y1="507.517" x2="754.295" y2="411.658" gradientUnits="userSpaceOnUse">
<stop stop-color="white" stop-opacity="0.01"/>
<stop offset="0.07" stop-color="white" stop-opacity="0.22"/>
<stop offset="0.16" stop-color="white" stop-opacity="0.45"/>
<stop offset="0.25" stop-color="white" stop-opacity="0.65"/>
<stop offset="0.33" stop-color="white" stop-opacity="0.8"/>
<stop offset="0.4" stop-color="white" stop-opacity="0.91"/>
<stop offset="0.46" stop-color="white" stop-opacity="0.98"/>
<stop offset="0.51" stop-color="white"/>
</linearGradient>
<linearGradient id="paint30_linear_917_1803" x1="504.024" y1="673.745" x2="542.208" y2="673.767" gradientUnits="userSpaceOnUse">
<stop stop-color="white" stop-opacity="0.01"/>
<stop offset="0.07" stop-color="white" stop-opacity="0.22"/>
<stop offset="0.16" stop-color="white" stop-opacity="0.45"/>
<stop offset="0.25" stop-color="white" stop-opacity="0.65"/>
<stop offset="0.33" stop-color="white" stop-opacity="0.8"/>
<stop offset="0.4" stop-color="white" stop-opacity="0.91"/>
<stop offset="0.46" stop-color="white" stop-opacity="0.98"/>
<stop offset="0.51" stop-color="white"/>
</linearGradient>
<linearGradient id="paint31_linear_917_1803" x1="430.731" y1="576.2" x2="442.383" y2="614.932" gradientUnits="userSpaceOnUse">
<stop stop-color="#010101" stop-opacity="0.01"/>
<stop offset="0.95" stop-color="#010101"/>
</linearGradient>
<linearGradient id="paint32_linear_917_1803" x1="455.53" y1="724.933" x2="556.432" y2="726.976" gradientUnits="userSpaceOnUse">
<stop stop-color="#010101" stop-opacity="0.01"/>
<stop offset="0.95" stop-color="#010101"/>
</linearGradient>
<linearGradient id="paint33_linear_917_1803" x1="858.301" y1="882.512" x2="762.207" y2="717.732" gradientUnits="userSpaceOnUse">
<stop stop-color="#010101" stop-opacity="0.01"/>
<stop offset="0.95" stop-color="#010101"/>
</linearGradient>
<linearGradient id="paint34_linear_917_1803" x1="859.323" y1="420.892" x2="686.437" y2="425.761" gradientUnits="userSpaceOnUse">
<stop stop-color="#010101" stop-opacity="0.01"/>
<stop offset="0.95" stop-color="#010101"/>
</linearGradient>
</defs>
</svg>
