<svg width="17" height="17" viewBox="0 0 17 17" fill="#B0B8BC" xmlns="http://www.w3.org/2000/svg">
<path d="M16.2856 3.4776C15.6906 3.7386 15.0566 3.9116 14.3956 3.9956C15.0756 3.5896 15.5946 2.9516 15.8386 2.1826C15.2046 2.5606 14.5046 2.8276 13.7586 2.9766C13.1566 2.3356 12.2986 1.9386 11.3626 1.9386C9.54664 1.9386 8.08464 3.4126 8.08464 5.2196C8.08464 5.4796 8.10664 5.7296 8.16064 5.9676C5.43364 5.8346 3.02064 4.5276 1.39964 2.5366C1.11664 3.0276 0.950645 3.5896 0.950645 4.1946C0.950645 5.3306 1.53564 6.3376 2.40764 6.9206C1.88064 6.9106 1.36364 6.7576 0.925645 6.5166C0.925645 6.5266 0.925645 6.5396 0.925645 6.5526C0.925645 8.1466 2.06264 9.4706 3.55364 9.7756C3.28664 9.8486 2.99564 9.8836 2.69364 9.8836C2.48364 9.8836 2.27164 9.8716 2.07264 9.8276C2.49764 11.1266 3.70364 12.0816 5.13764 12.1126C4.02164 12.9856 2.60464 13.5116 1.07064 13.5116C0.801645 13.5116 0.543645 13.4996 0.285645 13.4666C1.73864 14.4036 3.46064 14.9386 5.31764 14.9386C11.3536 14.9386 14.6536 9.9386 14.6536 5.6046C14.6536 5.4596 14.6486 5.3196 14.6416 5.1806C15.2926 4.7186 15.8396 4.1416 16.2856 3.4776Z"/>
</svg>
