<svg width="17" height="17" viewBox="0 0 17 17" fill="#B0B8BC" xmlns="http://www.w3.org/2000/svg">
<path fill-rule="evenodd" clip-rule="evenodd" d="M13.7416 3.36385C14.7006 3.41785 15.1716 3.55985 15.6056 4.33185C16.0576 5.10285 16.2856 6.43085 16.2856 8.76985V8.77285V8.77785C16.2856 11.1059 16.0576 12.4439 15.6066 13.2069C15.1726 13.9789 14.7016 14.1189 13.7426 14.1839C12.7836 14.2389 10.3746 14.2719 8.28765 14.2719C6.19664 14.2719 3.78664 14.2389 2.82864 14.1829C1.87164 14.1179 1.40064 13.9779 0.962645 13.2059C0.515645 12.4429 0.285645 11.1049 0.285645 8.77685V8.77485V8.77185V8.76885C0.285645 6.43085 0.515645 5.10285 0.962645 4.33185C1.40064 3.55885 1.87264 3.41785 2.82964 3.36285C3.78664 3.29885 6.19664 3.27185 8.28765 3.27185C10.3746 3.27185 12.7836 3.29885 13.7416 3.36385ZM11.2856 8.77185L6.28564 5.77185V11.7719L11.2856 8.77185Z"/>
</svg>
